<svg xmlns="http://www.w3.org/2000/svg" viewBox="0 0 100 100">
  <rect width="100" height="100" fill="#080808"/>
  <!-- ears -->
  <polygon points="18,12 8,40 32,35" fill="#1a1a1a"/>
  <polygon points="82,12 92,40 68,35" fill="#1a1a1a"/>
  <!-- head -->
  <ellipse cx="50" cy="60" rx="36" ry="33" fill="#1a1a1a"/>
  <!-- eyes -->
  <ellipse cx="34" cy="52" rx="7" ry="8" fill="#080808"/>
  <ellipse cx="66" cy="52" rx="7" ry="8" fill="#080808"/>
  <ellipse cx="35" cy="53" rx="3.5" ry="5.5" fill="#ff2d78"/>
  <ellipse cx="67" cy="53" rx="3.5" ry="5.5" fill="#ff2d78"/>
  <circle cx="37" cy="50" r="1.5" fill="#fff" opacity="0.9"/>
  <circle cx="69" cy="50" r="1.5" fill="#fff" opacity="0.9"/>
  <!-- nose -->
  <polygon points="50,64 46,70 54,70" fill="#ff2d78"/>
  <!-- star -->
  <path d="M26,44 L28,37 L30,44 L37,42 L32,47 L34,54 L28,50 L22,54 L24,47 L19,42Z" fill="#ff2d78"/>
</svg>
